<svg xmlns="http://www.w3.org/2000/svg" xmlns:xlink="http://www.w3.org/1999/xlink" version="1.1" x="0px" y="0px" viewBox="0 0 100 125" style="enable-background:new 0 0 100 100;" xml:space="preserve"><path d="M89.8,31.1c0-0.1,0-0.1,0-0.2c0-11.5-9.3-20.8-20.8-20.8H46.4c-10.2,0-18.6,7.3-20.4,17h-3.4c-11.5,0-20.8,9.3-20.8,20.8  s9.3,20.8,20.8,20.8h23.6V82H31.5v7.9h37.1V82H54.1V68.8h23.4c11.5,0,20.8-9.3,20.8-20.8C98.3,41.3,95.1,35,89.8,31.1z M29.6,27.1  C29.6,27.1,29.6,27.1,29.6,27.1L29.6,27.1L29.6,27.1z M77.5,60.9h-55c-7.1,0-12.9-5.8-12.9-12.9S15.4,35,22.5,35h7h11.2  c7.1,0,12.9,5.7,12.9,13h7.9c0-11.6-9.3-20.9-20.8-20.9h-6.6c1.6-5.3,6.5-9.1,12.3-9.1H69c7.1,0,12.9,5.8,12.9,12.9  c0,0.6,0,1.1-0.1,1.7l-0.4,2.7l2.3,1.3c4.1,2.3,6.6,6.6,6.6,11.3C90.4,55.1,84.6,60.9,77.5,60.9z"/><text x="0" y="115" fill="#000000" font-size="5px" font-weight="bold" font-family="'Helvetica Neue', Helvetica, Arial-Unicode, Arial, Sans-serif">Created by Andrea Severgnini</text><text x="0" y="120" fill="#000000" font-size="5px" font-weight="bold" font-family="'Helvetica Neue', Helvetica, Arial-Unicode, Arial, Sans-serif">from the Noun Project</text></svg>