<?xml version="1.0" encoding="utf-8"?>
<!-- Generator: Adobe Illustrator 20.1.0, SVG Export Plug-In . SVG Version: 6.00 Build 0)  -->
<svg version="1.1" id="Calque_1" xmlns="http://www.w3.org/2000/svg" xmlns:xlink="http://www.w3.org/1999/xlink" x="0px" y="0px"
	 viewBox="0 0 100 125" style="enable-background:new 0 0 100 125;" xml:space="preserve">
<title>65 all</title>
<path d="M34,82h32c3.9,0,7-3.1,7-7V31h6c0.6,0,1-0.4,1-1s-0.4-1-1-1H61v-6c0-2.8-2.2-5-5-5H44c-2.8,0-5,2.2-5,5v6H21
	c-0.6,0-1,0.4-1,1s0.4,1,1,1h6v44C27,78.9,30.1,82,34,82z M41,23c0-1.7,1.3-3,3-3h12c1.7,0,3,1.3,3,3v6H41V23z M71,31v44
	c0,2.8-2.2,5-5,5H34c-2.8,0-5-2.2-5-5V31H71z"/>
<path d="M42,66c0.6,0,1-0.4,1-1V46c0-0.6-0.4-1-1-1s-1,0.4-1,1v19C41,65.6,41.4,66,42,66z"/>
<path d="M58,66c0.6,0,1-0.4,1-1V46c0-0.6-0.4-1-1-1s-1,0.4-1,1v19C57,65.6,57.4,66,58,66z"/>
</svg>
