<?xml version="1.0" encoding="utf-8"?>
<!-- Generator: Adobe Illustrator 20.1.0, SVG Export Plug-In . SVG Version: 6.00 Build 0)  -->
<svg version="1.1" id="Calque_1" xmlns="http://www.w3.org/2000/svg" xmlns:xlink="http://www.w3.org/1999/xlink" x="0px" y="0px"
	 viewBox="0 0 512 640" style="enable-background:new 0 0 512 640;" xml:space="preserve">
<style type="text/css">
	.st0{fill:none;stroke:#000000;stroke-width:2.5;stroke-linecap:round;stroke-linejoin:round;}
	.st1{fill:none;stroke:#000000;stroke-width:2.5;stroke-linejoin:round;}
</style>
<title>Mountain</title>
<polyline class="st0" points="357.6,414 198.5,143 39.4,414 496.9,415 357.1,177 287.5,295.6 "/>
<path class="st1" d="M208.3,160.4c5.2-11.4,18.6-16.5,30-11.3c7,3.2,11.9,9.6,13.1,17.2c9,2.1,15.4,10.2,15.4,19.5
	c0,0.1,0,0.3,0,0.4h-43.1"/>
<path class="st1" d="M179.4,175.9c-5.2-11.4-18.6-16.5-30-11.3c-7,3.2-11.9,9.6-13.1,17.2c-9,2.1-15.4,10.2-15.4,19.5
	c0,0.1,0,0.3,0,0.4H164"/>
<polyline class="st1" points="141.9,238.2 160.8,259.3 179.6,238.2 198.5,259.3 217.4,238.2 236.2,259.3 255.1,238.2 "/>
<path class="st1" d="M364.7,189.3c4.5-10,16.4-14.5,26.4-9.9c6.1,2.8,10.5,8.5,11.5,15.1c7.9,1.9,13.5,9,13.5,17.1
	c0,0.1,0,0.3,0,0.4h-37.9"/>
<path class="st1" d="M334.3,214.9c-4.5-10-16.4-14.5-26.4-9.9c-6.1,2.8-10.5,8.5-11.5,15.1c-7.9,1.9-13.5,9-13.5,17.1
	c0,0.1,0,0.3,0,0.4h37.9"/>
<polyline class="st1" points="307.4,260.6 324,279.2 340.5,260.6 357.1,279.2 373.7,260.6 390.3,279.2 406.9,260.6 "/>
</svg>
