<?xml version="1.0" encoding="utf-8"?>
<!-- Generator: Adobe Illustrator 20.1.0, SVG Export Plug-In . SVG Version: 6.00 Build 0)  -->
<svg version="1.1" id="Calque_1" xmlns="http://www.w3.org/2000/svg" xmlns:xlink="http://www.w3.org/1999/xlink" x="0px" y="0px"
	 viewBox="0 0 100 125" style="enable-background:new 0 0 100 125;" xml:space="preserve">
<title>04</title>
<path d="M86,8.1l-52,9.4v57c-3.5-5-10.4-6.2-15.3-2.7c-5,3.5-6.2,10.4-2.7,15.3s10.4,6.2,15.3,2.7c2.8-2,4.5-5.1,4.7-8.5l0,0V19.2
	l48-8.6v39c-3.5-5-10.4-6.2-15.3-2.7c-5,3.5-6.2,10.4-2.7,15.3c3.5,5,10.4,6.2,15.3,2.7c2.9-2.1,4.7-5.4,4.7-9c0-0.2,0-0.3,0-0.5
	l0,0V8.1z M25,89.8c-5,0-9-4-9-9s4-9,9-9s9,4,9,9l0,0C34,85.8,30,89.8,25,89.8z M75,64.8c-5,0-9-4-9-9s4-9,9-9s9,4,9,9l0,0
	C84,60.8,80,64.8,75,64.8z"/>
</svg>
