<?xml version="1.0" encoding="utf-8"?>
<!-- Generator: Adobe Illustrator 20.1.0, SVG Export Plug-In . SVG Version: 6.00 Build 0)  -->
<svg version="1.1" id="Calque_1" xmlns="http://www.w3.org/2000/svg" xmlns:xlink="http://www.w3.org/1999/xlink" x="0px" y="0px"
	 viewBox="0 0 512 640" style="enable-background:new 0 0 512 640;" xml:space="preserve">
<g>
	<path d="M219.8,46.9c43.7,0,84.7,17,115.6,47.9s47.9,72,47.9,115.6c0,43.7-17,84.7-47.9,115.6s-72,47.9-115.6,47.9
		s-84.7-17-115.6-47.9s-47.9-72-47.9-115.6c0-43.7,17-84.7,47.9-115.6S176.1,46.9,219.8,46.9 M219.8,42.9
		c-92.5,0-167.5,75-167.5,167.5s75,167.5,167.5,167.5s167.5-75,167.5-167.5S312.3,42.9,219.8,42.9L219.8,42.9z"/>
</g>
<g>
	<path d="M327.6,335.4c-0.4,0-0.8,0.2-1.1,0.5l0,0c-0.6,0.6-0.6,1.6,0,2.2L457,468.7c0.3,0.3,0.7,0.5,1.1,0.5s0.8-0.2,1.1-0.5
		c0.6-0.6,0.6-1.6,0-2.2L328.7,335.8C328.4,335.5,328,335.4,327.6,335.4L327.6,335.4z"/>
</g>
</svg>
