<?xml version="1.0" encoding="utf-8"?>
<!-- Generator: Adobe Illustrator 20.1.0, SVG Export Plug-In . SVG Version: 6.00 Build 0)  -->
<svg version="1.1" id="Calque_1" xmlns="http://www.w3.org/2000/svg" xmlns:xlink="http://www.w3.org/1999/xlink" x="0px" y="0px"
	 viewBox="0 0 100 125" style="enable-background:new 0 0 100 125;" xml:space="preserve">
<title>139all</title>
<path d="M14.2,14c-0.6,0-1,0.4-1,1v51.9c0,0.6,0.4,1,1,1H46l16.2,17.8c0.4,0.4,1,0.4,1.4,0.1c0.1-0.1,0.3-0.3,0.3-0.5l4-17.3h17.9
	c0.6,0,1-0.4,1-1V15c0-0.6-0.4-1-1-1H14.2z M84.8,65.9H67.1c-0.5,0-0.9,0.3-1,0.8l-3.7,16.2L47.2,66.2c-0.2-0.2-0.5-0.3-0.7-0.3
	H15.2V16h69.6V65.9z"/>
<rect x="26.8" y="27.6" width="46.5" height="2"/>
<rect x="26.8" y="39.6" width="46.5" height="2"/>
<rect x="26.8" y="51.6" width="46.5" height="2"/>
</svg>
