<?xml version="1.0" encoding="utf-8"?>
<!-- Generator: Adobe Illustrator 20.1.0, SVG Export Plug-In . SVG Version: 6.00 Build 0)  -->
<svg version="1.1"
	 id="Calque_1" xmlns:cc="http://creativecommons.org/ns#" xmlns:dc="http://purl.org/dc/elements/1.1/" xmlns:inkscape="http://www.inkscape.org/namespaces/inkscape" xmlns:rdf="http://www.w3.org/1999/02/22-rdf-syntax-ns#" xmlns:sodipodi="http://sodipodi.sourceforge.net/DTD/sodipodi-0.dtd" xmlns:svg="http://www.w3.org/2000/svg"
	 xmlns="http://www.w3.org/2000/svg" xmlns:xlink="http://www.w3.org/1999/xlink" x="0px" y="0px" viewBox="0 0 100 125"
	 style="enable-background:new 0 0 100 125;" xml:space="preserve">
<g transform="translate(0,-952.36218)">
	<path d="M50,959.4c-7.2,0-13,5.8-13,13v30c0,7.2,5.8,13,13,13s13-5.8,13-13v-30C63,965.2,57.2,959.4,50,959.4z M50,961.4
		c6.1,0,11,4.9,11,11v30c0,6.1-4.9,11-11,11s-11-4.9-11-11v-30C39,966.3,43.9,961.4,50,961.4z M22.9,994.3c0,0-0.1,0-0.1,0
		c-0.5,0.1-0.8,0.5-0.8,1v7c0,15.2,12,27.4,27,28v13H33c-0.1,0-0.1,0-0.2,0c-0.6,0.1-1,0.5-0.9,1.1c0.1,0.6,0.5,1,1.1,0.9h34
		c0.6,0,1-0.4,1-1c0-0.6-0.4-1-1-1c0,0,0,0,0,0H51v-13c15-0.5,27-12.8,27-28v-7c0-0.6-0.4-1-1-1s-1,0.4-1,1c0,0,0,0,0,0v7
		c0,14.4-11.6,26-26,26s-26-11.6-26-26v-7c0-0.6-0.4-1-1-1C23,994.3,22.9,994.3,22.9,994.3z"/>
</g>
</svg>
